<mxfile host="app.diagrams.net" modified="2024-07-18T13:05:37.143Z" agent="Mozilla/5.0 (Windows NT 10.0; Win64; x64) AppleWebKit/537.36 (KHTML, like Gecko) Chrome/126.0.0.0 Safari/537.36" version="24.7.1" etag="p7EIM9HJUQnvpdNRVIcT" type="github">
  <diagram name="第 1 页" id="Xe1lmOHRcLjApdPn8tgP">
    <mxGraphModel>
      <root>
        <mxCell id="0" />
        <mxCell id="1" parent="0" />
      </root>
    </mxGraphModel>
  </diagram>
</mxfile>
